<?xml version="1.0" standalone="no"?>
<!DOCTYPE svg PUBLIC "-//W3C//DTD SVG 20010904//EN"
 "http://www.w3.org/TR/2001/REC-SVG-20010904/DTD/svg10.dtd">
<svg version="1.0" xmlns="http://www.w3.org/2000/svg"
 width="16.000000pt" height="16.000000pt" viewBox="0 0 16.000000 16.000000"
 preserveAspectRatio="xMidYMid meet">
<metadata>
Created by potrace 1.11, written by Peter Selinger 2001-2013
</metadata>
<g transform="translate(0.000000,16.000000) scale(0.012500,-0.012500)"
fill="#000000" stroke="none">
<path d="M89 1213 c-7 -18 -8 -41 -2 -63 l8 -35 165 -6 c91 -3 173 -7 182 -8
17 -1 18 -36 20 -533 l3 -532 32 -10 c20 -5 50 -5 75 0 36 8 43 13 46 36 l3
27 32 -19 c95 -55 219 -62 332 -19 82 31 173 121 205 204 34 84 34 206 0 290
-32 83 -123 173 -205 204 -113 43 -237 36 -332 -19 l-33 -19 0 194 0 195 128
1 c70 1 152 4 182 7 l55 7 0 60 0 60 -443 3 -442 2 -11 -27z m848 -587 c45
-23 65 -57 65 -111 0 -53 -20 -88 -64 -115 -28 -17 -30 -20 -14 -26 20 -8 92
-151 102 -203 6 -29 5 -31 -25 -31 -29 0 -34 5 -52 48 -67 159 -78 172 -141
172 l-37 0 -3 -107 -3 -108 -32 -3 -33 -3 0 249 c0 137 3 252 8 256 13 15 195
0 229 -18z"/>
<path d="M770 506 l0 -86 45 0 c51 0 99 20 109 45 11 31 6 73 -13 96 -14 18
-31 23 -80 27 l-61 4 0 -86z"/>
</g>
</svg>
